# xmcd
#
# Track frame offsets: 
#        150
#        24838
#        44157
#        63937
#        83936
#        126697
#        154031
#        199886
#        223009
#        248424
#        269107
#        289031
#
# Disc length: 4174 seconds
#
# Revision: 0
# Processed by: cddbd v1.5.2PL0 Copyright (c) Steve Scherf et al.
# Submitted via: ExactAudioCopyFreeDBPlugin 1.0
#
DISCID=b7104c0c
DTITLE=Various Artist - Two For The Blues: Albert King and Freddy King
DYEAR=2015
DGENRE=Blues
TTITLE0=Albert King - Born Under A Bad Sign
TTITLE1=Freddy King - Going Down
TTITLE2=Albert King - I'll Play The Blues For You
TTITLE3=Freddy King - Hide Away
TTITLE4=Albert King - Stormy Monday Blues
TTITLE5=Freddy King - Sweet Home Chicago
TTITLE6=Albert King - Blues At Sunrise
TTITLE7=Freddy King - Rock Me Baby
TTITLE8=Freddy King - Key To The Highway
TTITLE9=Albert King - The Very Thought Of You
TTITLE10=Freddy King - Messin' With The Kid
TTITLE11=Albert King - Breakin' Up Somebody's Home
EXTD=
EXTT0=
EXTT1=
EXTT2=
EXTT3=
EXTT4=
EXTT5=
EXTT6=
EXTT7=
EXTT8=
EXTT9=
EXTT10=
EXTT11=
PLAYORDER=
